<svg id="visual" viewBox="0 0 900 600" width="900" height="600" xmlns="http://www.w3.org/2000/svg" xmlns:xlink="http://www.w3.org/1999/xlink" version="1.1"><rect x="0" y="0" width="900" height="600" fill="#D9FF96"></rect><defs><linearGradient id="grad1_0" x1="33.3%" y1="0%" x2="100%" y2="100%"><stop offset="20%" stop-color="#466215" stop-opacity="1"></stop><stop offset="80%" stop-color="#466215" stop-opacity="1"></stop></linearGradient></defs><defs><linearGradient id="grad1_1" x1="33.3%" y1="0%" x2="100%" y2="100%"><stop offset="20%" stop-color="#466215" stop-opacity="1"></stop><stop offset="80%" stop-color="#698734" stop-opacity="1"></stop></linearGradient></defs><defs><linearGradient id="grad1_2" x1="33.3%" y1="0%" x2="100%" y2="100%"><stop offset="20%" stop-color="#8dad53" stop-opacity="1"></stop><stop offset="80%" stop-color="#698734" stop-opacity="1"></stop></linearGradient></defs><defs><linearGradient id="grad1_3" x1="33.3%" y1="0%" x2="100%" y2="100%"><stop offset="20%" stop-color="#8dad53" stop-opacity="1"></stop><stop offset="80%" stop-color="#b2d574" stop-opacity="1"></stop></linearGradient></defs><defs><linearGradient id="grad1_4" x1="33.3%" y1="0%" x2="100%" y2="100%"><stop offset="20%" stop-color="#d9ff96" stop-opacity="1"></stop><stop offset="80%" stop-color="#b2d574" stop-opacity="1"></stop></linearGradient></defs><defs><linearGradient id="grad2_0" x1="0%" y1="0%" x2="66.7%" y2="100%"><stop offset="20%" stop-color="#466215" stop-opacity="1"></stop><stop offset="80%" stop-color="#466215" stop-opacity="1"></stop></linearGradient></defs><defs><linearGradient id="grad2_1" x1="0%" y1="0%" x2="66.7%" y2="100%"><stop offset="20%" stop-color="#698734" stop-opacity="1"></stop><stop offset="80%" stop-color="#466215" stop-opacity="1"></stop></linearGradient></defs><defs><linearGradient id="grad2_2" x1="0%" y1="0%" x2="66.7%" y2="100%"><stop offset="20%" stop-color="#698734" stop-opacity="1"></stop><stop offset="80%" stop-color="#8dad53" stop-opacity="1"></stop></linearGradient></defs><defs><linearGradient id="grad2_3" x1="0%" y1="0%" x2="66.7%" y2="100%"><stop offset="20%" stop-color="#b2d574" stop-opacity="1"></stop><stop offset="80%" stop-color="#8dad53" stop-opacity="1"></stop></linearGradient></defs><defs><linearGradient id="grad2_4" x1="0%" y1="0%" x2="66.7%" y2="100%"><stop offset="20%" stop-color="#b2d574" stop-opacity="1"></stop><stop offset="80%" stop-color="#d9ff96" stop-opacity="1"></stop></linearGradient></defs><g transform="translate(900, 0)"><path d="M0 378.6C-63.9 365.3 -127.8 352.1 -186 322.2C-244.2 292.3 -296.7 245.8 -327.9 189.3C-359 132.8 -368.8 66.4 -378.6 0L0 0Z" fill="#c5ea85"></path><path d="M0 302.9C-51.1 292.3 -102.2 281.6 -148.8 257.7C-195.4 233.8 -237.4 196.6 -262.3 151.4C-287.2 106.3 -295 53.1 -302.9 0L0 0Z" fill="#9fc164"></path><path d="M0 227.1C-38.3 219.2 -76.7 211.2 -111.6 193.3C-146.5 175.4 -178 147.5 -196.7 113.6C-215.4 79.7 -221.3 39.8 -227.1 0L0 0Z" fill="#7a9a44"></path><path d="M0 151.4C-25.6 146.1 -51.1 140.8 -74.4 128.9C-97.7 116.9 -118.7 98.3 -131.1 75.7C-143.6 53.1 -147.5 26.6 -151.4 0L0 0Z" fill="#577425"></path><path d="M0 75.7C-12.8 73.1 -25.6 70.4 -37.2 64.4C-48.8 58.5 -59.3 49.2 -65.6 37.9C-71.8 26.6 -73.8 13.3 -75.7 0L0 0Z" fill="#466215"></path></g><g transform="translate(0, 600)"><path d="M0 -378.6C63.1 -363.9 126.2 -349.3 184.5 -319.6C242.8 -289.8 296.3 -245.1 327.9 -189.3C359.4 -133.5 369 -66.8 378.6 0L0 0Z" fill="#c5ea85"></path><path d="M0 -302.9C50.5 -291.1 101 -279.4 147.6 -255.7C194.2 -231.9 237.1 -196.1 262.3 -151.4C287.5 -106.8 295.2 -53.4 302.9 0L0 0Z" fill="#9fc164"></path><path d="M0 -227.1C37.9 -218.4 75.7 -209.6 110.7 -191.7C145.7 -173.9 177.8 -147 196.7 -113.6C215.6 -80.1 221.4 -40.1 227.1 0L0 0Z" fill="#7a9a44"></path><path d="M0 -151.4C25.2 -145.6 50.5 -139.7 73.8 -127.8C97.1 -115.9 118.5 -98 131.1 -75.7C143.8 -53.4 147.6 -26.7 151.4 0L0 0Z" fill="#577425"></path><path d="M0 -75.7C12.6 -72.8 25.2 -69.9 36.9 -63.9C48.6 -58 59.3 -49 65.6 -37.9C71.9 -26.7 73.8 -13.4 75.7 0L0 0Z" fill="#466215"></path></g></svg>